<svg width="216" height="52" viewBox="0 0 216 52" fill="none" xmlns="http://www.w3.org/2000/svg">
<g clip-path="url(#clip0_9_5)">
<path d="M33.354 0C33.354 14.8571 0 7.42857 0 37.1429C0 48.2857 3.706 52 3.706 52H7.412C7.412 52 1.853 48.2857 1.853 37.1429C1.853 29.7143 18.53 22.2857 18.53 22.2857C18.53 22.2857 3.74121 30.3234 3.74121 37.9526C27.3392 41.6576 40.401 14.1254 33.354 0Z" fill="white"/>
<path d="M57.5569 17.7487L46.7463 34.8806H49.8162L52.3367 30.882H58.1421V34.8806H60.7462V17.7487H57.5569ZM58.1422 21.6877V28.2844H53.9733L58.1422 21.6877ZM65.4885 32.4862C63.7843 30.7781 62.9322 28.7189 62.9322 26.3087C62.9322 23.8984 63.7843 21.8391 65.4885 20.1312C67.1928 18.4232 69.2474 17.5691 71.6523 17.5691C72.8388 17.5691 73.9697 17.7966 75.0448 18.2516L74.0414 20.658C73.2769 20.3307 72.4805 20.1671 71.6523 20.1671C69.964 20.1671 68.5226 20.7697 67.3281 21.9749C66.1335 23.1721 65.5362 24.6168 65.5362 26.3087C65.5362 28.0007 66.1335 29.4454 67.3281 30.6426C68.5226 31.8398 69.9641 32.4384 71.6523 32.4384C72.2017 32.4384 72.7353 32.3706 73.2529 32.2349V27.5658H70.4816V24.9559H75.857V34.0186L75.0686 34.3539C73.9776 34.8168 72.8388 35.0482 71.6523 35.0482C69.2473 35.0482 67.1927 34.1942 65.4885 32.4862ZM80.3247 25.0633V20.3463H84.0397C84.6847 20.3463 85.2382 20.5778 85.7 21.0407C86.154 21.5036 86.3809 22.0623 86.3809 22.7168C86.3809 23.3633 86.154 23.914 85.7 24.3689C85.2382 24.8318 84.6847 25.0633 84.0397 25.0633H80.3247ZM85.9745 27.2663C86.8664 26.8832 87.5871 26.2846 88.1367 25.4705C88.7021 24.6404 88.9848 23.7225 88.9848 22.7169C88.9848 21.3441 88.499 20.1749 87.5274 19.2091C86.5639 18.2354 85.4012 17.7485 84.0394 17.7485H77.732V34.8804H80.3241V27.6614H83.2508L86.9897 34.8804H89.9163L85.9745 27.2663ZM94.8741 21.9745C93.6796 23.1717 93.0823 24.6164 93.0823 26.3084C93.0823 28.0004 93.6796 29.4451 94.8741 30.6423C96.0687 31.8395 97.5101 32.4381 99.1983 32.4381C100.887 32.4381 102.328 31.8395 103.523 30.6423C104.717 29.4451 105.314 28.0004 105.314 26.3084C105.314 24.6164 104.717 23.1717 103.523 21.9745C102.328 20.7774 100.887 20.1787 99.1983 20.1787C97.5101 20.1787 96.0686 20.7773 94.8741 21.9745ZM93.0345 32.4862C91.3303 30.7781 90.4782 28.7189 90.4782 26.3087C90.4782 23.8984 91.3303 21.8391 93.0345 20.1312C94.7388 18.4232 96.7934 17.5691 99.1983 17.5691C101.603 17.5691 103.658 18.4231 105.362 20.1312C107.066 21.8392 107.918 23.8984 107.918 26.3087C107.918 28.7189 107.066 30.7782 105.362 32.4862C103.658 34.1941 101.603 35.0482 99.1983 35.0482C96.7934 35.0482 94.7387 34.1942 93.0345 32.4862ZM113.569 30.6425C112.374 29.4453 111.777 28.0006 111.777 26.3086C111.777 24.6166 112.374 23.1719 113.569 21.9747C114.763 20.7695 116.205 20.167 117.893 20.167C118.928 20.167 119.896 20.4144 120.796 20.9092V18.0599C119.856 17.7327 118.888 17.569 117.893 17.569C115.488 17.569 113.433 18.423 111.729 20.1311C110.025 21.8391 109.173 23.8983 109.173 26.3086C109.173 28.7188 110.025 30.7781 111.729 32.4861C113.433 34.194 115.488 35.0481 117.893 35.0481C118.888 35.0481 119.856 34.8805 120.796 34.5453V31.7079C119.896 32.1947 118.928 32.4382 117.893 32.4382C116.205 32.4382 114.763 31.8397 113.569 30.6425ZM126.434 21.9745C125.239 23.1717 124.642 24.6164 124.642 26.3084C124.642 28.0004 125.239 29.4451 126.434 30.6423C127.628 31.8395 129.07 32.4381 130.758 32.4381C132.446 32.4381 133.888 31.8395 135.082 30.6423C136.277 29.4451 136.874 28.0004 136.874 26.3084C136.874 24.6164 136.277 23.1717 135.082 21.9745C133.888 20.7774 132.446 20.1787 130.758 20.1787C129.07 20.1787 127.628 20.7773 126.434 21.9745ZM124.594 32.4862C122.89 30.7781 122.038 28.7189 122.038 26.3087C122.038 23.8984 122.89 21.8391 124.594 20.1312C126.298 18.4232 128.353 17.5691 130.758 17.5691C133.163 17.5691 135.217 18.4231 136.922 20.1312C138.626 21.8392 139.478 23.8984 139.478 26.3087C139.478 28.7189 138.626 30.7782 136.922 32.4862C135.217 34.1941 133.163 35.0482 130.758 35.0482C128.353 35.0482 126.298 34.1942 124.594 32.4862ZM151.328 17.7487V29.9959L144.029 17.7487H141.318V34.8806H143.91V22.6335L151.22 34.8806H153.932V17.7487H151.328ZM156.56 17.7487V34.8806H159.737L169.807 17.7487H166.797L159.164 30.7382V17.7487H156.56ZM171.384 17.7487V34.8806H180.104V32.2827H173.976V27.5896H178.706V24.9916H173.976V20.3465H180.104V17.7486L171.384 17.7487ZM184.643 25.0633V20.3463H188.358C189.003 20.3463 189.557 20.5778 190.019 21.0407C190.473 21.5036 190.7 22.0623 190.7 22.7168C190.7 23.3633 190.473 23.914 190.019 24.3689C189.557 24.8318 189.003 25.0633 188.358 25.0633H184.643ZM190.293 27.2663C191.185 26.8832 191.906 26.2846 192.455 25.4705C193.021 24.6404 193.303 23.7225 193.303 22.7169C193.303 21.3441 192.818 20.1749 191.846 19.2091C190.883 18.2354 189.72 17.7485 188.358 17.7485H182.051V34.8804H184.643V27.6614H187.569L191.308 34.8804H194.235L190.293 27.2663ZM195.107 17.7487V20.3467H198.727V34.8808H201.331V20.3467H204.95V17.7487H195.107ZM207.28 17.7487V34.8806H216V32.2827H209.872V27.5896H214.602V24.9916H209.872V20.3465H216V17.7486L207.28 17.7487Z" fill="white"/>
</g>
<defs>
<clipPath id="clip0_9_5">
<rect width="216" height="52" fill="white"/>
</clipPath>
</defs>
</svg>
